<svg width="30" height="30" viewBox="0 0 30 30" fill="none" xmlns="http://www.w3.org/2000/svg">
<g clip-path="url(#clip0_2_579)">
<path d="M14.5623 21.374C13.9226 21.6335 13.6144 22.3625 13.8739 23.0022C14.1335 23.6419 14.8624 23.9501 15.5022 23.6906C16.1419 23.4311 16.4501 22.7021 16.1905 22.0624C15.931 21.4227 15.202 21.1145 14.5623 21.374Z" stroke="black" stroke-linecap="round" stroke-linejoin="round"/>
<path d="M10.3331 10.9492L14.5624 21.374" stroke="#009156" stroke-linecap="round" stroke-linejoin="round"/>
<path d="M10.3331 10.9492L14.5624 21.374" stroke="#009156" stroke-linecap="round" stroke-linejoin="round"/>
<path d="M10.3331 10.9492L14.5624 21.374" stroke="#009156" stroke-linecap="round" stroke-linejoin="round"/>
<path d="M10.3331 10.9492L14.5624 21.374" stroke="#009156" stroke-linecap="round" stroke-linejoin="round"/>
<path d="M10.3331 10.9492L14.5624 21.374" stroke="#009156" stroke-linecap="round" stroke-linejoin="round"/>
<path d="M3.44912 27.2314L13.8739 23.0022" stroke="#009156" stroke-linecap="round" stroke-linejoin="round"/>
<path d="M3.44912 27.2314L13.8739 23.0022" stroke="#009156" stroke-linecap="round" stroke-linejoin="round"/>
<path d="M3.44912 27.2314L13.8739 23.0022" stroke="#009156" stroke-linecap="round" stroke-linejoin="round"/>
<path d="M3.44912 27.2314L13.8739 23.0022" stroke="#009156" stroke-linecap="round" stroke-linejoin="round"/>
<path d="M3.44912 27.2314L13.8739 23.0022" stroke="#009156" stroke-linecap="round" stroke-linejoin="round"/>
<path d="M16.1905 22.0624L26.6153 17.8331" stroke="#009156" stroke-linecap="round" stroke-linejoin="round"/>
<path d="M16.1905 22.0624L26.6153 17.8331" stroke="#009156" stroke-linecap="round" stroke-linejoin="round"/>
<path d="M16.1905 22.0624L26.6153 17.8331" stroke="#009156" stroke-linecap="round" stroke-linejoin="round"/>
<path d="M16.1905 22.0624L26.6153 17.8331" stroke="#009156" stroke-linecap="round" stroke-linejoin="round"/>
<path d="M16.1905 22.0624L26.6153 17.8331" stroke="#009156" stroke-linecap="round" stroke-linejoin="round"/>
<path d="M23.1404 19.2429L26.6153 17.8331C25.369 14.7611 22.9534 12.31 19.8999 11.019C16.8464 9.72801 13.4051 9.7029 10.3331 10.9492C7.26103 12.1955 4.80991 14.6111 3.51892 17.6646C2.22793 20.7181 2.20282 24.1594 3.44911 27.2314L6.92404 25.8217" stroke="black" stroke-width="2" stroke-linecap="round" stroke-linejoin="round"/>
</g>
<defs>
<clipPath id="clip0_2_579">
<rect width="30" height="30" fill="white"/>
</clipPath>
</defs>
</svg>
