<svg width="30" height="31" viewBox="0 0 30 31" fill="none" xmlns="http://www.w3.org/2000/svg">
<path d="M28.75 23.9807C28.75 24.6438 28.4866 25.2796 28.0178 25.7485C27.5489 26.2173 26.913 26.4807 26.25 26.4807H3.75C3.08696 26.4807 2.45107 26.2173 1.98223 25.7485C1.51339 25.2796 1.25 24.6438 1.25 23.9807V10.2307C1.25 9.56767 1.51339 8.93179 1.98223 8.46295C2.45107 7.9941 3.08696 7.73071 3.75 7.73071H8.75L11.25 3.98071H18.75L21.25 7.73071H26.25C26.913 7.73071 27.5489 7.9941 28.0178 8.46295C28.4866 8.93179 28.75 9.56767 28.75 10.2307V23.9807Z" stroke="black" stroke-width="2" stroke-linecap="round" stroke-linejoin="round"/>
<path d="M15 21.4807C17.7614 21.4807 20 19.2421 20 16.4807C20 13.7193 17.7614 11.4807 15 11.4807C12.2386 11.4807 10 13.7193 10 16.4807C10 19.2421 12.2386 21.4807 15 21.4807Z" stroke="#009156" stroke-linecap="round" stroke-linejoin="round"/>
</svg>
