<svg width="30" height="31" viewBox="0 0 30 31" fill="none" xmlns="http://www.w3.org/2000/svg">
<path d="M22.5 15.8974V22.8974C22.5 23.5162 22.2717 24.1097 21.8654 24.5473C21.4591 24.9849 20.908 25.2307 20.3333 25.2307H8.41667C7.84203 25.2307 7.29093 24.9849 6.8846 24.5473C6.47827 24.1097 6.25 23.5162 6.25 22.8974V10.064C6.25 9.44521 6.47827 8.85172 6.8846 8.41413C7.29093 7.97655 7.84203 7.73071 8.41667 7.73071H14.9167" stroke="black" stroke-width="2" stroke-linecap="round" stroke-linejoin="round"/>
<path d="M26.6522 15.5823V25.5823C26.6522 26.4664 26.301 27.3142 25.6759 27.9393C25.0508 28.5645 24.2029 28.9157 23.3189 28.9157H4.98556C4.1015 28.9157 3.25365 28.5645 2.62853 27.9393C2.00341 27.3142 1.65222 26.4664 1.65222 25.5823V7.24898C1.65222 6.36493 2.00341 5.51708 2.62853 4.89196C3.25365 4.26684 4.1015 3.91565 4.98556 3.91565H14.9856" stroke="#009156" stroke-linecap="round" stroke-linejoin="round"/>
<path d="M18.75 3.98071H26.25V11.4807" stroke="#009156" stroke-linecap="round" stroke-linejoin="round"/>
<path d="M10.2632 21.086L17.1382 14.211L24.0132 7.336" stroke="#009156" stroke-linecap="round" stroke-linejoin="round"/>
</svg>
