<svg width="39" height="40" viewBox="0 0 39 40" fill="none" xmlns="http://www.w3.org/2000/svg">
<path d="M1.625 20C1.625 20 8.125 6.66663 19.5 6.66663C30.875 6.66663 37.375 20 37.375 20C37.375 20 30.875 33.3333 19.5 33.3333C8.125 33.3333 1.625 20 1.625 20Z" stroke="black" stroke-width="2" stroke-linecap="round" stroke-linejoin="round"/>
<path d="M19.875 25C22.5674 25 24.75 22.7614 24.75 20C24.75 17.2386 22.5674 15 19.875 15C17.1826 15 15 17.2386 15 20C15 22.7614 17.1826 25 19.875 25Z" stroke="black" stroke-width="2" stroke-linecap="round" stroke-linejoin="round"/>
<path d="M20 28C24.4183 28 28 24.4183 28 20C28 15.5817 24.4183 12 20 12C15.5817 12 12 15.5817 12 20C12 24.4183 15.5817 28 20 28Z" stroke="#009156" stroke-width="2" stroke-linecap="round" stroke-linejoin="round"/>
</svg>
