<svg width="32" height="29" viewBox="0 0 32 29" fill="none" xmlns="http://www.w3.org/2000/svg">
<path d="M3.50003 27.2307V3.23071H27.5V27.2307H3.50003Z" stroke="black" stroke-width="2" stroke-linecap="round"/>
<path d="M0.833333 26C0.833333 27.4728 2.02724 28.6667 3.5 28.6667C4.97276 28.6667 6.16667 27.4728 6.16667 26C6.16667 24.5272 4.97276 23.3333 3.5 23.3333C2.02724 23.3333 0.833333 24.5272 0.833333 26ZM25.8333 3C25.8333 4.47276 27.0272 5.66667 28.5 5.66667C29.9728 5.66667 31.1667 4.47276 31.1667 3C31.1667 1.52724 29.9728 0.333333 28.5 0.333333C27.0272 0.333333 25.8333 1.52724 25.8333 3ZM3.83853 26.368L28.8385 3.36797L28.1615 2.63203L3.16147 25.632L3.83853 26.368Z" fill="#009156"/>
</svg>
