<svg width="37" height="37" viewBox="0 0 37 37" fill="none" xmlns="http://www.w3.org/2000/svg">
<path d="M29.2917 16.9584H7.70833C6.00546 16.9584 4.625 18.3388 4.625 20.0417V30.8334C4.625 32.5363 6.00546 33.9167 7.70833 33.9167H29.2917C30.9945 33.9167 32.375 32.5363 32.375 30.8334V20.0417C32.375 18.3388 30.9945 16.9584 29.2917 16.9584Z" stroke="black" stroke-width="2" stroke-linecap="round" stroke-linejoin="round"/>
<path d="M10.7917 16.9584V10.7917C10.7917 8.74733 11.6038 6.78669 13.0494 5.34109C14.495 3.8955 16.4556 3.08337 18.5 3.08337C20.5444 3.08337 22.505 3.8955 23.9506 5.34109C25.3962 6.78669 26.2083 8.74733 26.2083 10.7917V16.9584" stroke="black" stroke-width="2" stroke-linecap="round" stroke-linejoin="round"/>
<path d="M18.5262 20.2973L18.5371 21.4758M18.5371 21.4758L20.3048 21.4595L20.3238 23.5218L18.5561 23.5381M18.5371 21.4758L18.5561 23.5381M18.5784 25.9598C18.8806 25.955 19.1808 26.01 19.4616 26.1217C19.7425 26.2334 19.9985 26.3995 20.2149 26.6105C20.4312 26.8215 20.6037 27.0732 20.7224 27.3512C20.8411 27.6292 20.9037 27.9278 20.9065 28.2301C20.9093 28.5323 20.8522 28.8321 20.7387 29.1122C20.6251 29.3923 20.4573 29.6471 20.2448 29.8621C20.0324 30.0771 19.7795 30.2479 19.5008 30.3647C19.222 30.4816 18.9229 30.5421 18.6207 30.5429C18.0198 30.538 17.4449 30.2973 17.0198 29.8726C16.5947 29.4479 16.3533 28.8733 16.3478 28.2724C16.3423 27.6715 16.5729 27.0925 16.9902 26.6601C17.4074 26.2277 17.9777 25.9764 18.5784 25.9604L18.5784 25.9598ZM18.5784 25.9598L18.5561 23.5381" stroke="#009156" stroke-linecap="round" stroke-linejoin="round"/>
</svg>
