<svg width="42" height="42" viewBox="0 0 42 42" fill="none" xmlns="http://www.w3.org/2000/svg">
<path d="M26.25 7L12.25 15.75" stroke="#009156" stroke-width="2" stroke-linecap="round" stroke-linejoin="round"/>
<path d="M12.25 15.75L12.25 33.25" stroke="#009156" stroke-width="2" stroke-linecap="round"/>
<path d="M21 38.64L21 21" stroke="black" stroke-width="2" stroke-linecap="round" stroke-linejoin="round"/>
<path d="M19.25 13.125L26.25 17.5L26.25 35.875" stroke="#009156" stroke-width="2" stroke-linecap="round"/>
<path d="M5.7225 12.1801L21 21.0176L36.2775 12.1801" stroke="black" stroke-width="2" stroke-linecap="round" stroke-linejoin="round"/>
<path d="M36.75 28V14C36.7494 13.3862 36.5874 12.7834 36.2802 12.252C35.973 11.7206 35.5315 11.2793 35 10.9725L22.75 3.97245C22.2179 3.66526 21.6144 3.50354 21 3.50354C20.3856 3.50354 19.7821 3.66526 19.25 3.97245L7 10.9725C6.46846 11.2793 6.02697 11.7206 5.71981 12.252C5.41265 12.7834 5.25063 13.3862 5.25 14L5.25 28C5.25063 28.6137 5.41265 29.2165 5.71981 29.7479C6.02697 30.2793 6.46846 30.7206 7 31.0275L19.25 38.0275C19.7821 38.3346 20.3856 38.4964 21 38.4964C21.6144 38.4964 22.2179 38.3346 22.75 38.0275L35 31.0275C35.5315 30.7206 35.973 30.2793 36.2802 29.7479C36.5874 29.2165 36.7494 28.6137 36.75 28Z" stroke="black" stroke-width="2" stroke-linecap="round" stroke-linejoin="round"/>
</svg>
